<?xml version="1.0" standalone="no"?>
<!DOCTYPE svg PUBLIC "-//W3C//DTD SVG 20010904//EN"
 "http://www.w3.org/TR/2001/REC-SVG-20010904/DTD/svg10.dtd">
<svg version="1.0" xmlns="http://www.w3.org/2000/svg"
 width="300.000000pt" height="300.000000pt" viewBox="0 0 300.000000 300.000000"
 preserveAspectRatio="xMidYMid meet">
<metadata>
Created by potrace 1.10, written by Peter Selinger 2001-2011
</metadata>
<g transform="translate(0.000000,300.000000) scale(0.050000,-0.050000)"
fill="#000000" stroke="none">
<path d="M3005 5604 c-19 -32 -255 -480 -525 -994 l-490 -936 -325 -156 c-179
-86 -326 -168 -327 -182 -7 -130 8 -769 19 -781 8 -8 145 -38 304 -67 159 -28
292 -54 295 -57 6 -7 -61 -1261 -95 -1781 -10 -143 -11 -265 -4 -271 16 -12
2247 18 2260 31 5 5 -16 487 -47 1070 -30 584 -50 1067 -44 1073 7 7 116 19
242 28 288 19 258 -12 322 332 l56 294 -58 49 c-32 26 -204 193 -382 369
l-324 321 48 38 c45 35 90 143 90 216 0 17 -61 69 -137 115 -183 113 -159 78
-503 740 -336 647 -325 630 -375 549z"/>
</g>
</svg>
